<svg xmlns="http://www.w3.org/2000/svg" version="1.0" preserveAspectRatio="xMidYMid meet" viewBox="5 27.98 284.86 142.9">
<metadata>
Created by potrace 1.10, written by Peter Selinger 2001-2011
</metadata>
<g transform="translate(0.000000,400.000000) scale(0.050000,-0.050000)" fill="#000000" stroke="none">
<path d="M3012 7419 c-126 -38 -185 -130 -350 -545 -54 -138 -114 -273 -132 -301 -43 -66 1 -98 49 -35 20 27 45 39 64 32 19 -7 58 10 96 42 56 47 71 51 104 31 34 -22 45 -18 80 26 32 41 47 47 77 31 56 -30 71 -25 96 30 15 33 39 50 71 50 27 0 61 19 77 43 24 36 35 39 71 20 56 -30 105 -29 105 2 0 14 -38 41 -85 61 l-85 35 -35 -48 c-24 -33 -48 -46 -75 -39 -28 8 -45 -4 -63 -42 -21 -46 -32 -51 -89 -40 -52 10 -69 4 -87 -30 -18 -35 -28 -38 -59 -18 -32 19 -51 11 -123 -50 -111 -95 -111 -94 -22 117 42 98 102 242 133 319 84 203 141 250 303 250 168 0 205 -36 275 -266 56 -181 68 -201 110 -175 20 12 21 26 3 58 -12 23 -40 100 -62 170 -76 248 -225 339 -447 272z"/>
<path d="M1364 7116 c-13 -13 -24 -30 -24 -37 0 -8 -113 -229 -252 -491 -139 -263 -305 -584 -370 -713 -117 -233 -119 -235 -188 -235 -46 0 -86 -16 -115 -45 l-45 -45 85 -10 85 -10 -105 -190 c-96 -174 -111 -191 -175 -201 -93 -15 -160 -53 -160 -91 0 -25 16 -29 75 -20 41 6 129 17 195 24 131 13 210 51 210 101 0 24 -15 29 -60 23 -78 -12 -77 -5 32 200 l91 174 213 24 c117 13 215 21 219 18 3 -4 -12 -120 -34 -259 -23 -139 -41 -257 -41 -262 0 -5 -46 -16 -101 -23 -101 -13 -202 -71 -174 -100 36 -36 695 23 738 66 64 65 30 93 -96 80 -59 -6 -107 -3 -107 6 0 10 59 454 130 986 153 1139 144 1005 67 1032 -76 26 -64 27 -93 -2z m-193 -910 c-39 -252 -71 -468 -71 -479 0 -12 -56 -28 -125 -35 -69 -8 -159 -19 -201 -26 l-75 -11 265 520 c147 287 269 514 272 505 3 -9 -26 -222 -65 -474z"/>
<path d="M4120 7086 c-161 -57 -467 -187 -850 -362 -649 -296 -797 -334 -1108 -286 -285 44 -347 147 -183 303 95 91 177 108 371 80 182 -26 190 -26 190 7 0 57 -338 96 -465 54 -207 -69 -311 -279 -200 -403 192 -215 639 -164 1340 152 920 415 1019 445 1180 361 202 -104 136 -308 -165 -510 -246 -164 -644 -270 -616 -164 40 155 -110 229 -348 173 -156 -37 -546 -217 -546 -253 0 -42 58 -38 128 9 232 157 641 249 691 155 34 -63 9 -117 -75 -163 l-74 -41 179 11 c524 34 1011 340 1011 636 0 152 -287 303 -460 241z"/>
<path d="M4812 6955 c-190 -201 -461 -740 -555 -1102 -113 -438 -511 -688 -585 -368 -11 49 -4 59 83 102 283 144 467 535 282 601 -216 75 -555 -345 -557 -690 -1 -386 381 -397 645 -19 l75 108 0 -103 c0 -308 199 -394 379 -165 76 97 181 287 181 328 0 63 -38 33 -90 -72 -143 -286 -290 -298 -290 -25 0 128 2 132 129 304 350 474 593 1003 524 1146 -42 89 -106 76 -221 -45z m48 -230 c0 -107 -133 -401 -335 -741 -126 -212 -140 -218 -95 -44 109 420 430 1006 430 785z m-872 -751 c-3 -89 -74 -188 -210 -292 -113 -86 -125 -51 -43 124 116 246 258 341 253 168z"/>
<path d="M5201 7003 c-213 -399 -196 -575 28 -289 151 193 171 241 114 288 -60 48 -116 49 -142 1z"/>
<path d="M5351 6266 c-39 -53 -81 -132 -93 -176 -32 -115 -104 -250 -186 -348 -114 -136 -91 -302 64 -467 156 -166 451 -37 603 262 70 139 71 143 34 143 -14 0 -48 -47 -75 -105 -52 -113 -179 -255 -228 -255 -23 0 -16 25 30 107 74 131 80 280 21 570 -21 106 -42 228 -45 271 -8 110 -42 110 -125 -2z m25 -700 c-10 -293 -88 -298 -184 -11 l-51 150 53 92 c29 51 71 125 94 163 l41 70 27 -140 c14 -77 23 -223 20 -324z"/>
<path d="M3150 6145 c-196 -104 -448 -354 -529 -526 -189 -399 80 -521 368 -167 127 155 115 113 -69 -250 -232 -460 -314 -543 -296 -302 10 140 -7 152 -52 40 -119 -297 72 -488 251 -251 259 343 634 1228 558 1319 -46 57 -72 35 -192 -161 -135 -220 -309 -421 -345 -399 -126 77 137 512 385 636 114 58 150 86 151 121 0 35 -100 9 -230 -60z"/>
<path d="M2270 6117 c-125 -100 -266 -237 -372 -363 -54 -64 -98 -111 -98 -104 0 21 84 177 153 285 78 123 82 155 26 186 -86 45 -122 18 -194 -151 -135 -316 -267 -679 -261 -719 10 -67 72 -62 111 10 113 207 237 367 414 535 205 193 252 218 166 88 -159 -241 -231 -452 -196 -581 50 -185 247 -161 400 50 69 95 161 268 161 302 0 52 -32 21 -88 -87 -82 -157 -214 -299 -261 -281 -86 33 -6 301 179 606 100 165 103 179 59 243 -43 61 -106 55 -199 -19z"/>
</g>
</svg>